<?xml version="1.0" standalone="no"?>
<!DOCTYPE svg PUBLIC "-//W3C//DTD SVG 20010904//EN"
 "http://www.w3.org/TR/2001/REC-SVG-20010904/DTD/svg10.dtd">
<svg version="1.0" xmlns="http://www.w3.org/2000/svg"
 width="860.000000pt" height="921.000000pt" viewBox="0 0 860.000000 921.000000"
 preserveAspectRatio="xMidYMid meet">

<g transform="translate(0.000000,921.000000) scale(0.100000,-0.100000)"
fill="#000000" stroke="none">
<path d="M3232 8711 c-27 -17 -40 -204 -62 -936 -10 -337 -24 -482 -60 -656
-11 -55 -29 -188 -40 -297 -23 -227 -32 -271 -57 -290 -47 -35 -195 5 -1128
303 -345 111 -433 135 -484 135 -50 0 -71 -13 -71 -43 0 -31 126 -384 219
-612 22 -55 75 -190 117 -300 42 -110 98 -258 126 -330 69 -181 178 -506 178
-532 0 -37 -11 -53 -57 -85 -70 -48 -189 -105 -638 -308 -217 -98 -420 -199
-444 -221 -26 -24 -27 -61 -3 -81 9 -9 112 -63 228 -121 285 -141 687 -391
730 -452 8 -11 14 -28 14 -39 0 -11 -127 -147 -328 -350 -341 -344 -382 -388
-382 -412 0 -21 63 -87 123 -128 28 -20 192 -96 362 -171 171 -74 316 -143
323 -152 25 -35 -4 -155 -115 -466 -80 -223 -123 -360 -123 -388 0 -9 9 -27
19 -40 l19 -24 324 -6 c264 -4 330 -8 359 -21 76 -33 82 -72 49 -303 -27 -191
-27 -251 2 -266 29 -16 95 -6 208 30 127 41 144 53 136 101 -3 20 -19 67 -36
104 -34 73 -162 430 -205 566 -14 47 -42 108 -60 137 -31 46 -44 56 -149 107
-96 47 -123 66 -169 116 -111 123 -145 237 -127 415 15 145 63 239 189 368
l76 79 1 366 c1 584 27 863 149 1622 21 128 62 309 91 400 13 41 24 83 24 93
0 9 -14 42 -31 72 -72 128 -46 224 100 365 68 66 111 97 192 140 132 70 193
110 304 199 120 96 264 184 388 238 138 60 197 78 351 110 113 23 155 27 306
27 147 0 189 -4 265 -22 301 -75 530 -193 693 -359 94 -96 262 -341 341 -499
82 -162 238 -741 261 -969 7 -68 14 -436 17 -958 l5 -848 109 -95 c135 -119
173 -163 199 -230 42 -114 35 -305 -16 -405 -30 -60 -91 -121 -169 -169 -31
-19 -77 -47 -101 -63 -59 -36 -74 -70 -134 -315 -53 -216 -111 -377 -195 -542
-30 -59 -55 -114 -55 -123 0 -20 70 -61 129 -77 39 -10 46 -10 64 8 18 18 20
40 27 211 6 155 11 196 25 218 l17 26 102 -7 c55 -3 128 -13 161 -21 33 -8
113 -18 177 -21 100 -6 121 -5 142 10 15 9 26 26 26 39 0 12 -30 128 -66 257
-60 213 -66 246 -71 356 -8 176 -6 179 202 223 168 36 290 77 408 139 107 56
159 103 155 139 -2 21 -20 35 -93 76 -307 170 -423 247 -518 342 -138 138
-141 247 -14 437 114 170 359 403 622 594 168 121 280 225 291 267 11 46 -10
57 -132 68 -154 14 -281 42 -453 99 -262 86 -454 183 -467 234 -8 32 5 53 82
139 80 87 212 284 261 387 107 228 199 407 255 500 97 163 317 445 485 622 79
84 96 120 69 146 -34 34 -234 8 -436 -57 -134 -43 -276 -72 -660 -135 -184
-31 -357 -62 -385 -71 -57 -17 -171 -20 -180 -5 -4 6 -6 95 -6 198 -1 222 11
312 86 647 110 498 125 608 124 930 0 238 -9 369 -27 387 -22 22 -62 -3 -115
-70 -64 -79 -291 -310 -658 -668 -257 -251 -269 -264 -374 -419 -191 -283
-214 -309 -259 -292 -19 8 -138 199 -214 347 -78 149 -224 372 -321 490 -84
102 -306 422 -425 614 -124 199 -164 246 -194 227z"/>
<path d="M3939 6680 c-164 -26 -424 -116 -494 -172 -32 -25 -23 -39 49 -75 72
-36 184 -109 231 -151 86 -76 305 -322 305 -343 0 -5 -12 -9 -28 -9 -45 0
-125 63 -227 179 -94 108 -190 193 -250 223 -16 8 -52 18 -78 21 -26 4 -72 19
-102 33 l-55 27 -55 -37 c-58 -38 -75 -60 -58 -77 6 -6 63 -28 128 -50 257
-87 306 -128 559 -466 78 -104 185 -201 266 -241 48 -23 67 -27 140 -26 115 2
191 24 487 142 269 108 370 143 478 167 107 24 125 33 125 64 0 64 -175 327
-300 451 -138 138 -387 275 -590 325 -77 19 -442 29 -531 15z"/>
<path d="M3000 6176 c-87 -21 -136 -42 -208 -89 -159 -104 -240 -234 -198
-315 31 -61 94 -69 177 -22 214 118 267 135 388 128 144 -8 252 -89 466 -348
107 -129 222 -235 339 -311 76 -50 97 -59 152 -64 156 -17 428 42 762 166 75
28 208 75 295 105 172 58 231 87 271 135 61 72 8 155 -111 173 -97 14 -275
-30 -487 -123 -361 -157 -367 -159 -557 -168 -132 -6 -137 -5 -194 21 -88 40
-153 102 -299 285 -208 261 -313 357 -456 416 -58 24 -260 30 -340 11z"/>
<path d="M3010 5777 c-30 -13 -100 -48 -156 -80 -55 -31 -121 -65 -146 -76
-25 -11 -53 -30 -62 -43 -46 -64 -124 -411 -161 -713 -8 -71 -27 -200 -40
-285 -58 -367 -100 -862 -90 -1075 10 -234 118 -1020 175 -1275 83 -371 269
-848 425 -1085 115 -175 296 -345 487 -456 86 -50 122 -63 266 -93 198 -41
301 -49 528 -44 l209 6 165 52 c239 75 258 86 376 205 170 173 286 341 403
585 123 257 223 604 256 885 23 199 35 573 35 1080 0 648 -15 929 -51 951 -16
10 -21 -1 -36 -78 -31 -164 -200 -348 -399 -431 -116 -49 -180 -61 -317 -60
-70 1 -153 7 -185 13 -95 20 -249 108 -319 181 -67 72 -163 224 -183 289 -72
239 -63 438 30 690 17 45 30 88 30 96 0 22 -54 50 -123 64 -112 22 -164 40
-226 78 -100 60 -236 188 -344 322 -131 162 -217 247 -293 288 -53 27 -72 32
-130 32 -48 0 -85 -7 -124 -23z m415 -464 c141 -31 295 -120 392 -227 134
-147 180 -310 161 -581 -10 -145 -39 -256 -104 -392 -51 -106 -65 -126 -138
-198 -150 -147 -230 -178 -466 -178 -156 -1 -228 10 -329 49 -337 132 -482
473 -409 964 30 201 167 404 325 483 190 95 382 122 568 80z m458 -1845 c4
-202 10 -310 20 -348 32 -125 107 -230 164 -230 62 0 120 79 147 202 9 37 19
183 26 353 7 160 16 294 20 299 5 4 17 -7 27 -25 16 -30 18 -64 21 -259 4
-244 -8 -395 -38 -473 -21 -56 -89 -149 -125 -173 -60 -39 -155 -5 -214 77
-78 107 -131 351 -131 605 0 163 24 264 64 264 11 0 14 -58 19 -292z m1591 89
c28 -20 12 -51 -47 -99 -107 -85 -223 -124 -402 -134 -170 -10 -353 26 -455
91 -57 36 -140 114 -140 131 0 31 65 13 169 -46 138 -79 204 -93 416 -94 152
-1 163 0 215 25 30 14 89 51 130 82 81 61 87 64 114 44z m-2658 -47 c71 -62
140 -85 306 -100 133 -13 166 -10 331 31 131 33 237 47 237 32 0 -30 -82 -76
-210 -119 -77 -26 -97 -28 -215 -27 -292 2 -511 74 -545 178 -24 72 18 74 96
5z m1179 -967 c11 -119 43 -170 97 -155 33 8 69 75 77 141 4 34 10 64 14 67 8
8 189 -12 279 -31 37 -7 88 -23 113 -34 40 -17 44 -22 37 -42 -11 -28 3 -105
24 -137 13 -20 21 -23 47 -18 43 9 105 51 119 81 13 29 27 31 71 9 128 -67
289 -298 318 -459 35 -189 -42 -394 -172 -459 -47 -23 -65 -26 -158 -26 -87 0
-112 -4 -138 -20 -64 -38 -70 -94 -13 -122 69 -35 255 -16 357 35 90 46 185
178 217 302 45 171 -11 406 -149 621 -45 70 -60 144 -29 144 75 0 213 -258
249 -465 43 -249 -1 -432 -139 -581 -123 -133 -233 -165 -506 -144 -195 15
-230 9 -294 -50 -43 -40 -55 -59 -101 -165 -58 -133 -168 -195 -234 -131 -34
33 -46 72 -61 200 -18 150 -30 173 -118 212 -34 15 -81 51 -134 103 l-81 80
-101 -6 c-96 -5 -105 -4 -181 26 -113 44 -177 83 -208 128 -39 57 -79 217 -79
322 -1 194 77 366 204 450 68 46 98 52 98 20 0 -11 5 -30 11 -42 17 -32 71
-87 86 -87 24 0 50 60 57 130 5 47 13 73 26 85 29 26 89 44 155 45 33 1 89 10
125 20 108 30 107 31 115 -47z m-749 -69 c5 -18 1 -31 -15 -48 -11 -12 -21
-27 -21 -32 0 -6 -17 -24 -38 -41 -45 -37 -162 -255 -187 -348 -18 -71 -20
-286 -3 -336 15 -47 89 -160 140 -215 23 -25 62 -57 87 -72 45 -27 48 -27 196
-23 291 8 270 9 273 -17 4 -29 -31 -44 -154 -67 -121 -23 -253 -17 -319 15
-106 51 -266 239 -299 351 -39 129 -27 291 34 481 71 222 279 461 306 352z"/>
<path d="M3210 5255 c-86 -19 -228 -69 -309 -108 -80 -39 -158 -110 -193 -174
-45 -82 -104 -308 -123 -463 -8 -67 37 -255 85 -359 39 -82 182 -226 264 -265
134 -64 314 -88 451 -62 104 20 229 82 294 145 83 81 181 310 217 511 23 124
10 315 -24 359 -12 14 -31 46 -43 71 -31 60 -156 189 -233 240 -77 50 -215
107 -276 114 -25 3 -74 -1 -110 -9z m560 -390 c99 -51 41 -195 -78 -195 -42 0
-90 42 -98 86 -7 41 10 89 40 109 27 19 99 19 136 0z"/>
<path d="M3710 2545 c-24 -29 9 -116 60 -159 48 -40 88 -29 110 28 14 37 13
119 -2 134 -18 18 -152 16 -168 -3z"/>
<path d="M4307 2549 c-46 -27 -35 -94 25 -156 37 -38 51 -40 95 -14 37 23 48
60 38 131 l-7 50 -66 0 c-37 0 -75 -5 -85 -11z"/>
<path d="M3921 1530 c-37 -9 -51 -24 -51 -57 0 -39 11 -51 70 -73 65 -24 116
-68 137 -119 8 -18 20 -87 27 -152 12 -108 25 -149 46 -149 28 0 78 65 121
155 52 111 70 130 179 198 86 53 130 91 130 113 0 30 -21 54 -58 63 -102 27
-514 41 -601 21z"/>
<path d="M5365 5406 c-99 -34 -122 -46 -133 -68 -18 -37 -7 -55 52 -85 97 -49
266 -238 306 -343 19 -51 29 -58 47 -35 30 39 5 216 -63 452 -17 59 -53 117
-74 120 -8 1 -69 -18 -135 -41z"/>
<path d="M4940 5257 c-19 -8 -75 -31 -124 -51 -49 -20 -146 -52 -215 -72 -69
-20 -143 -45 -164 -56 -48 -24 -98 -101 -143 -221 -45 -123 -54 -176 -54 -337
0 -106 4 -151 21 -210 51 -184 171 -331 339 -414 52 -25 122 -51 155 -57 92
-17 256 -6 337 24 156 56 318 178 367 276 13 24 34 98 48 164 23 103 27 147
27 287 0 153 -2 171 -27 245 -15 44 -39 101 -54 127 -38 65 -123 150 -203 203
-137 91 -236 120 -310 92z m446 -391 c59 -59 43 -142 -32 -166 -50 -17 -98 -5
-128 31 -38 45 -34 83 13 130 52 53 98 54 147 5z"/>
<path d="M2243 2967 c-33 -18 -77 -84 -103 -152 -16 -42 -24 -90 -28 -162 -8
-173 42 -284 167 -367 63 -42 98 -53 120 -39 23 15 19 108 -18 363 -34 236
-54 325 -78 352 -19 21 -30 22 -60 5z"/>
<path d="M5792 2922 c-26 -17 -34 -85 -39 -347 -4 -233 -3 -273 10 -290 16
-20 16 -20 62 4 96 51 193 194 202 301 6 65 -17 129 -78 221 -63 94 -120 134
-157 111z"/>
</g>
</svg>
